<?xml version="1.0" standalone="no"?>
<!DOCTYPE svg PUBLIC "-//W3C//DTD SVG 20010904//EN"
 "http://www.w3.org/TR/2001/REC-SVG-20010904/DTD/svg10.dtd">
<svg version="1.0" xmlns="http://www.w3.org/2000/svg"
 width="1280.000000pt" height="1254.000000pt" viewBox="0 0 1280.000000 1254.000000"
 preserveAspectRatio="xMidYMid meet">
<metadata>
Created by potrace 1.15, written by Peter Selinger 2001-2017
</metadata>
<g transform="translate(0.000000,1254.000000) scale(0.100000,-0.100000)"
fill="#000000" stroke="none">
<path d="M9485 11931 c-193 -55 -389 -193 -655 -460 -345 -346 -710 -837
-1122 -1506 -112 -182 -328 -551 -397 -677 -23 -43 -44 -78 -47 -78 -2 0 11
31 30 68 28 56 31 68 18 68 -10 1 -53 11 -97 23 -73 20 -150 36 -295 61 -124
22 -330 40 -456 40 l-134 0 -50 34 c-55 38 -110 51 -171 41 -29 -5 -39 -11
-35 -21 3 -8 4 -14 2 -14 -2 0 -69 84 -149 188 -712 917 -1389 1580 -1864
1825 -470 243 -776 98 -834 -394 -14 -127 -7 -405 16 -574 62 -460 240 -1104
499 -1804 25 -68 45 -125 43 -127 -1 -1 -58 9 -127 23 -420 82 -910 151 -1270
179 -369 28 -804 13 -1025 -37 -300 -67 -467 -182 -519 -359 -65 -220 74 -493
425 -835 218 -212 474 -413 831 -653 l195 -131 -5 -49 c-5 -62 11 -113 51
-158 40 -47 77 -64 134 -64 56 0 129 36 127 63 -2 20 -3 21 231 -113 94 -54
258 -145 365 -204 234 -126 273 -151 96 -61 -71 36 -125 60 -119 53 6 -7 16
-89 22 -183 6 -93 16 -198 21 -233 22 -145 33 -209 40 -237 4 -16 13 -57 20
-90 7 -33 16 -71 20 -85 5 -14 14 -46 21 -72 l13 -47 31 18 c76 46 125 73 125
68 0 -2 -44 -31 -97 -63 -284 -168 -715 -445 -978 -627 -889 -617 -1356 -1110
-1322 -1397 24 -205 256 -303 677 -286 531 21 1197 169 2260 501 11 4 15 -4
16 -30 1 -48 48 -113 103 -142 146 -77 306 35 305 214 0 34 -6 68 -12 76 -10
12 4 20 93 51 130 45 147 46 35 1 -47 -19 -79 -34 -72 -34 11 -1 65 -34 117
-74 30 -23 137 -87 145 -87 4 0 10 -3 12 -7 3 -9 85 -55 141 -81 24 -11 37
-24 38 -37 0 -11 12 22 26 73 14 51 28 91 30 88 2 -2 -10 -57 -26 -122 -74
-292 -168 -748 -215 -1034 -61 -376 -86 -620 -93 -921 -13 -530 55 -829 226
-1000 86 -85 149 -112 271 -111 101 0 172 21 307 92 146 76 272 177 478 384
362 364 698 813 1124 1504 79 128 147 229 151 225 4 -4 60 -75 126 -157 269
-338 545 -645 836 -932 438 -432 771 -668 1071 -759 48 -14 85 -30 82 -35 -11
-17 56 -80 97 -91 73 -19 157 29 175 100 3 14 38 58 78 96 83 80 122 152 157
285 21 77 23 108 23 340 0 216 -4 278 -23 405 -86 562 -282 1224 -610 2060
-33 83 -58 151 -57 153 1 1 60 -11 131 -27 490 -111 1086 -210 1544 -257 243
-24 772 -30 945 -10 319 37 509 102 639 217 109 98 150 245 112 399 -22 90
-94 228 -173 335 -79 106 -326 356 -468 474 -223 186 -560 425 -893 635 -101
64 -125 84 -138 114 -19 47 -60 91 -101 108 -38 16 -117 19 -108 4 12 -20 -11
-9 -184 89 -97 54 -218 121 -269 148 l-92 50 137 83 c598 363 1161 757 1528
1069 145 123 370 352 448 456 81 108 144 231 159 314 28 149 -53 271 -217 326
-189 63 -539 61 -960 -6 -362 -58 -938 -198 -1438 -351 -92 -28 -169 -49 -171
-47 -2 2 27 119 66 259 102 375 111 402 118 390 8 -13 76 59 90 96 20 52 6
148 -23 166 -8 5 2 67 36 225 94 442 156 817 194 1173 24 232 25 713 1 860
-48 295 -129 468 -262 557 -93 63 -227 80 -351 44z m226 -98 c75 -24 150 -100
194 -196 75 -162 105 -361 105 -692 0 -442 -66 -946 -211 -1605 -36 -166 -49
-206 -59 -190 -11 18 -89 -6 -123 -38 -16 -15 -38 -45 -49 -66 -37 -72 -6
-189 61 -231 28 -18 31 -24 27 -55 -10 -70 -178 -645 -189 -649 -82 -30 -512
-170 -514 -167 -2 2 32 16 75 31 75 26 79 29 63 46 -21 24 -29 33 -80 109 -25
36 -47 67 -51 70 -3 3 -17 21 -32 42 -15 20 -33 42 -40 50 -7 7 -33 38 -58 68
-58 71 -269 282 -340 340 -30 25 -61 51 -68 58 -8 7 -30 25 -50 40 -21 15 -39
29 -42 32 -3 4 -34 26 -70 51 -36 24 -69 47 -75 52 -29 22 -137 87 -145 87 -4
0 -10 3 -12 8 -8 18 -296 161 -454 225 l-111 44 -32 -58 c-18 -33 -35 -59 -38
-59 -14 0 282 517 472 825 246 398 457 701 700 1005 320 400 592 652 830 770
140 69 223 83 316 53z m-5917 -318 c431 -113 1107 -715 1864 -1663 155 -194
300 -382 317 -412 5 -9 -1 -7 -15 5 -13 11 -20 15 -17 8 5 -7 -7 -13 -35 -18
-254 -39 -469 -97 -687 -185 -151 -60 -441 -204 -449 -222 -2 -5 -8 -8 -12 -8
-8 0 -116 -65 -145 -87 -6 -5 -39 -28 -75 -52 -36 -25 -67 -47 -70 -51 -3 -3
-21 -17 -42 -32 -20 -15 -42 -33 -50 -40 -7 -7 -38 -33 -68 -58 -30 -25 -77
-67 -104 -95 l-49 -50 57 -13 c31 -8 55 -16 53 -18 -6 -6 -330 66 -338 74 -12
13 -156 403 -239 648 -245 722 -362 1269 -361 1689 0 180 13 278 50 376 41
109 110 186 187 209 47 14 165 11 228 -5z m3576 -2385 c-6 -11 -13 -20 -16
-20 -2 0 0 9 6 20 6 11 13 20 16 20 2 0 0 -9 -6 -20z m-4859 -424 c288 -30
485 -58 794 -111 190 -33 535 -101 540 -107 3 -5 116 -292 121 -308 2 -8 -11
17 -30 55 -19 39 -35 64 -35 57 -1 -11 -44 -77 -61 -92 -4 -3 -26 -34 -51 -70
-24 -36 -47 -69 -52 -75 -22 -29 -87 -137 -87 -145 0 -4 -3 -10 -7 -12 -19 -8
-164 -299 -223 -449 -41 -102 -74 -199 -100 -289 -7 -25 -16 -56 -20 -70 -4
-14 -13 -52 -20 -85 -7 -33 -16 -73 -20 -90 -7 -28 -18 -94 -40 -237 -5 -35
-12 -104 -15 -153 l-6 -91 40 -22 c59 -33 50 -37 -11 -6 -82 42 -404 221 -494
275 -75 45 -80 50 -76 77 5 40 -33 118 -75 149 -24 19 -50 28 -89 31 -54 4
-114 -11 -114 -30 0 -35 -579 370 -835 583 -307 257 -529 526 -585 707 -26 85
-26 183 0 237 30 63 101 127 187 169 89 45 258 89 393 105 52 6 109 13 125 15
73 10 709 -3 846 -18z m1802 -193 c-7 -2 -19 -2 -25 0 -7 3 -2 5 12 5 14 0 19
-2 13 -5z m7762 -28 c99 -21 171 -59 202 -106 22 -33 25 -47 21 -97 -25 -343
-837 -1034 -2125 -1805 l-161 -97 -284 145 c-265 135 -351 183 -207 115 35
-16 65 -28 67 -26 2 2 -1 30 -7 63 -5 32 -15 92 -21 133 -7 41 -16 89 -20 105
-4 17 -13 57 -20 90 -7 33 -16 71 -20 85 -4 14 -13 45 -20 70 -14 50 -81 253
-85 258 -2 2 -20 -47 -40 -108 -20 -61 -39 -110 -41 -108 -1 2 31 107 72 233
41 127 97 307 125 400 29 94 57 175 63 181 12 12 325 110 618 194 496 140
1019 250 1328 279 63 6 133 13 155 15 78 8 331 -4 400 -19z m-7688 9 c-3 -3
-12 -4 -19 -1 -8 3 -5 6 6 6 11 1 17 -2 13 -5z m-274 -65 c54 -12 96 -23 94
-26 -3 -2 -37 4 -76 13 -40 9 -81 14 -92 11 -10 -3 -17 -1 -13 4 3 5 0 9 -5 9
-15 0 -14 -7 9 -69 32 -82 18 -71 -17 15 -25 61 -28 74 -14 70 9 -2 60 -14
114 -27z m144 -35 c-3 -3 -12 -4 -19 -1 -8 3 -5 6 6 6 11 1 17 -2 13 -5z
m-187 -129 c0 -5 -5 -3 -10 5 -5 8 -10 20 -10 25 0 6 5 3 10 -5 5 -8 10 -19
10 -25z m30 -70 c0 -5 -5 -3 -10 5 -5 8 -10 20 -10 25 0 6 5 3 10 -5 5 -8 10
-19 10 -25z m-101 -90 c0 -5 -6 1 -14 15 -8 14 -14 30 -14 35 0 6 6 -1 14 -15
8 -14 14 -29 14 -35z m5431 -140 c0 -2 -6 -24 -14 -47 -8 -24 -47 -145 -87
-270 -40 -125 -74 -226 -76 -224 -3 2 9 47 26 100 l30 96 -64 124 c-35 68 -61
127 -57 132 4 4 0 5 -8 2 -79 -27 -122 -39 -125 -36 -5 4 343 126 363 127 6 1
12 -1 12 -4z m-400 -135 c-8 -5 -19 -10 -25 -10 -5 0 -3 5 5 10 8 5 20 10 25
10 6 0 3 -5 -5 -10z m211 -451 c-5 -13 -10 -19 -10 -12 -1 15 10 45 15 40 3
-2 0 -15 -5 -28z m59 -226 c-11 -17 -11 -17 -6 0 3 10 6 24 7 30 0 9 2 9 5 0
3 -7 0 -20 -6 -30z m95 -461 c-3 -3 -11 0 -18 7 -9 10 -8 11 6 5 10 -3 15 -9
12 -12z m25 -147 c25 -13 41 -24 35 -24 -5 0 -30 11 -55 24 -25 13 -40 24 -35
24 6 0 30 -11 55 -24z m335 -164 l135 -70 -67 -39 c-255 -148 -343 -196 -343
-188 0 2 29 21 65 41 l65 36 0 98 c0 54 -3 119 -6 143 -6 44 -9 46 -66 74 -33
16 -62 32 -64 36 -7 12 126 -50 281 -131z m-6365 -56 c0 -3 -18 4 -40 15 -22
11 -40 23 -40 25 0 3 18 -4 40 -15 22 -11 40 -23 40 -25z m6880 -213 c251
-136 313 -174 299 -182 -22 -14 -23 -103 -1 -152 51 -115 175 -141 268 -56
l43 40 63 -38 c146 -87 505 -330 653 -441 223 -168 339 -267 491 -418 447
-445 499 -745 159 -906 -187 -88 -412 -123 -805 -122 -444 0 -875 47 -1510
164 -175 32 -803 167 -806 173 -21 47 -157 376 -160 386 -2 8 14 -21 35 -65
22 -45 40 -71 40 -60 1 12 8 30 16 40 28 36 95 146 95 155 0 4 3 10 8 12 18 8
163 299 222 449 41 102 74 199 100 289 7 25 16 56 20 70 4 14 13 52 20 85 7
33 16 74 20 90 4 17 13 64 20 105 6 41 15 99 21 129 5 30 9 68 9 86 0 17 6 37
13 44 6 7 -12 1 -40 -13 -89 -44 -59 -21 55 43 59 33 172 98 252 145 l144 84
41 -20 c22 -11 119 -63 215 -116z m-800 -37 c0 -2 -13 -11 -30 -20 -38 -19
-40 -11 -2 9 31 17 32 18 32 11z m30 -130 c0 -2 -18 -14 -40 -25 -22 -11 -40
-18 -40 -15 0 2 17 13 38 24 42 23 42 23 42 16z m-5960 -650 c0 -2 -13 -11
-30 -20 -38 -19 -40 -11 -2 9 31 17 32 18 32 11z m-70 -39 c0 -2 -17 -15 -37
-28 -20 -13 -41 -26 -45 -29 -21 -14 221 -542 255 -557 4 -2 7 -8 7 -12 0 -8
65 -116 87 -145 5 -6 28 -39 52 -75 25 -36 47 -67 51 -70 3 -3 17 -21 32 -42
15 -20 33 -42 40 -50 7 -7 33 -38 58 -68 47 -58 264 -276 345 -347 l47 -41 71
24 c99 34 109 29 12 -6 -89 -32 -137 -45 -117 -32 9 6 6 12 -13 20 -39 18
-111 14 -154 -7 -46 -24 -108 -91 -92 -101 20 -11 -565 -193 -964 -299 -569
-151 -1000 -228 -1340 -238 -403 -12 -578 58 -562 228 26 293 637 850 1637
1493 309 199 508 318 520 311 6 -4 9 -2 8 4 -2 6 20 25 47 41 53 31 55 32 55
26z m5479 -651 c0 -5 -6 1 -14 15 -8 14 -14 30 -14 35 0 6 6 -1 14 -15 8 -14
14 -29 14 -35z m-20 -269 c28 -66 50 -120 48 -122 -2 -2 -50 10 -108 26 -100
27 -126 42 -33 19 41 -11 47 -10 68 10 12 12 26 18 30 14 7 -7 -12 46 -49 133
-15 36 -19 51 -11 43 2 -2 27 -58 55 -123z m-332 -152 c-3 -3 -12 -4 -19 -1
-8 3 -5 6 6 6 11 1 17 -2 13 -5z m252 -63 l195 -49 53 -134 c371 -921 579
-1618 660 -2211 22 -165 22 -484 0 -583 -33 -146 -85 -245 -149 -284 -26 -15
-33 -16 -44 -5 -44 44 -145 38 -183 -11 -19 -24 -25 -26 -65 -20 -287 43 -859
496 -1411 1116 -233 262 -585 689 -607 736 -8 18 -1 38 45 115 76 131 301 538
348 632 22 42 41 77 44 77 3 0 -18 -46 -46 -102 -31 -62 -44 -96 -33 -87 11 9
75 44 144 78 148 72 224 113 228 124 2 4 8 7 12 7 8 0 116 65 145 87 6 5 39
28 75 52 36 25 67 47 70 51 3 3 21 17 42 32 20 15 42 33 50 40 7 7 38 33 68
58 85 69 295 283 283 287 -6 2 -40 12 -75 23 -114 34 -46 21 151 -29z m-4289
-271 c-8 -5 -19 -10 -25 -10 -5 0 -3 5 5 10 8 5 20 10 25 10 6 0 3 -5 -5 -10z
m457 -272 c-3 -8 -6 -5 -6 6 -1 11 2 17 5 13 3 -3 4 -12 1 -19z m2736 -53 c-3
-9 -8 -14 -10 -11 -3 3 -2 9 2 15 9 16 15 13 8 -4z m-2626 -37 c-3 -8 -6 -5
-6 6 -1 11 2 17 5 13 3 -3 4 -12 1 -19z m-22 -93 c-9 -37 -14 -70 -10 -73 3
-3 5 0 5 6 0 6 44 -7 98 -29 108 -44 221 -84 297 -104 28 -8 77 -21 110 -30
116 -31 335 -68 511 -85 107 -11 438 -9 666 5 l58 3 81 -111 c45 -62 113 -151
151 -199 37 -48 68 -93 68 -99 0 -13 -86 -158 -248 -419 -363 -583 -701 -1030
-1022 -1351 -235 -235 -408 -360 -574 -414 -145 -47 -247 -26 -335 70 -75 82
-131 231 -163 435 -20 131 -17 653 5 855 37 331 107 750 183 1085 58 256 126
532 130 527 3 -2 -3 -35 -11 -72z m2410 -52 c-63 -119 -97 -174 -82 -130 4 11
3 16 -4 12 -6 -4 -8 -14 -4 -22 5 -14 -72 -166 -177 -346 l-39 -68 -31 38
c-17 21 -89 119 -161 218 -72 99 -141 195 -155 213 -13 17 -22 32 -19 32 3 0
35 -41 72 -90 46 -61 71 -88 79 -82 6 5 34 13 61 17 52 7 195 43 338 85 49 14
62 30 125 149 30 56 56 101 59 101 2 0 -25 -57 -62 -127z m-795 -93 c12 -16
19 -30 16 -30 -2 0 -14 14 -26 30 -12 17 -19 30 -16 30 2 0 14 -13 26 -30z
m70 -96 c23 -30 40 -57 38 -60 -2 -2 -23 23 -47 56 -53 76 -47 78 9 4z"/>
</g>
</svg>
